<svg width="123" height="64" viewBox="0 0 123 64" fill="none" xmlns="http://www.w3.org/2000/svg">
<g clip-path="url(#clip0_652_5427)">
<path fill-rule="evenodd" clip-rule="evenodd" d="M52.9984 15.8356L29.9207 0.617579C28.666 -0.210987 26.6128 -0.210987 25.3587 0.617579L2.2816 15.8368C1.02629 16.6639 0 18.5651 0 20.0618V43.9387C0 45.4357 1.02629 47.3366 2.2816 48.164L25.3587 63.3835C26.6128 64.2106 28.666 64.2106 29.9207 63.3835L52.9984 48.1625C54.2537 47.3354 55.2794 45.4343 55.2794 43.9375V20.0606C55.2797 18.5651 54.254 16.6639 52.9984 15.8356Z" fill="url(#paint0_linear_652_5427)"></path>
<path d="M43.6293 32.5937H43.6282C43.606 33.3729 42.9742 33.9968 42.1934 34.0073H37.2326H33.8538H29.2564C28.4528 34.0073 27.8018 33.3548 27.8018 32.5512C27.8018 31.9165 28.2082 31.3775 28.7748 31.1784H28.7736L36.7158 28.3005C35.256 24.7222 31.7419 22.2001 27.6396 22.2001C22.2272 22.2001 17.8397 26.5859 17.8397 32.0006C17.8397 37.4133 22.2272 41.7996 27.6396 41.7996C30.6352 41.7996 33.317 40.4533 35.1145 38.3337V38.336C35.3812 38.039 35.7666 37.8535 36.1961 37.8535H36.1984H40.2188C41.0236 37.8535 41.6746 38.5052 41.6746 39.3088C41.6746 39.5932 41.591 39.8593 41.4495 40.085C38.6717 44.8216 33.5277 48.002 27.6399 48.002C18.8022 48.002 11.6377 40.8376 11.6377 32.0006C11.6377 23.1618 18.8019 15.9981 27.6399 15.9981C34.4251 15.9981 40.2247 20.2211 42.5509 26.1858C43.2549 27.9867 43.6415 29.9476 43.6415 32.0009C43.6413 32.1992 43.6363 32.3975 43.6293 32.5937Z" fill="white" id="e_letter"></path>
<path d="M66.2394 37.8189C66.0203 37.8189 65.836 37.7444 65.6866 37.5953C65.5371 37.4463 65.4624 37.2625 65.4624 37.044V26.9559C65.4624 26.7275 65.5371 26.5437 65.6866 26.4046C65.836 26.2556 66.0203 26.1811 66.2394 26.1811H72.9938C73.2229 26.1811 73.4072 26.2506 73.5467 26.3897C73.6861 26.5189 73.7559 26.6927 73.7559 26.9112C73.7559 27.1199 73.6861 27.2887 73.5467 27.4179C73.4072 27.547 73.2229 27.6116 72.9938 27.6116H67.0165V31.2326H71.3052C71.5343 31.2326 71.7186 31.3021 71.8581 31.4412C71.9976 31.5703 72.0673 31.7392 72.0673 31.9478C72.0673 32.1564 71.9976 32.3303 71.8581 32.4694C71.7186 32.5985 71.5343 32.6631 71.3052 32.6631H67.0165V36.3884H72.9938C73.2229 36.3884 73.4072 36.4529 73.5467 36.5821C73.6861 36.7112 73.7559 36.8801 73.7559 37.0887C73.7559 37.3073 73.6861 37.4861 73.5467 37.6251C73.4072 37.7543 73.2229 37.8189 72.9938 37.8189H66.2394Z" fill="white"></path>
<path d="M80.4982 37.8189C80.279 37.8189 80.0947 37.7444 79.9453 37.5953C79.7959 37.4463 79.7211 37.2625 79.7211 37.044V26.1811H81.2752V37.044C81.2752 37.2625 81.2005 37.4463 81.0511 37.5953C80.9017 37.7444 80.7174 37.8189 80.4982 37.8189ZM76.4934 27.6116C76.2842 27.6116 76.1099 27.547 75.9704 27.4179C75.8409 27.2788 75.7761 27.105 75.7761 26.8963C75.7761 26.6877 75.8409 26.5189 75.9704 26.3897C76.1099 26.2506 76.2842 26.1811 76.4934 26.1811H84.488C84.6972 26.1811 84.8666 26.2506 84.9961 26.3897C85.1356 26.5189 85.2053 26.6877 85.2053 26.8963C85.2053 27.105 85.1356 27.2788 84.9961 27.4179C84.8666 27.547 84.6972 27.6116 84.488 27.6116H76.4934Z" fill="white"></path>
<path d="M88.0764 37.8189C87.8572 37.8189 87.6729 37.7444 87.5235 37.5953C87.374 37.4463 87.2993 37.2625 87.2993 37.044V26.9559C87.2993 26.7275 87.374 26.5437 87.5235 26.4046C87.6729 26.2556 87.8572 26.1811 88.0764 26.1811H94.8307C95.0598 26.1811 95.2441 26.2506 95.3836 26.3897C95.5231 26.5189 95.5928 26.6927 95.5928 26.9112C95.5928 27.1199 95.5231 27.2887 95.3836 27.4179C95.2441 27.547 95.0598 27.6116 94.8307 27.6116H88.8534V31.2326H93.1421C93.3713 31.2326 93.5555 31.3021 93.695 31.4412C93.8345 31.5703 93.9042 31.7392 93.9042 31.9478C93.9042 32.1564 93.8345 32.3303 93.695 32.4694C93.5555 32.5985 93.3713 32.6631 93.1421 32.6631H88.8534V36.3884H94.8307C95.0598 36.3884 95.2441 36.4529 95.3836 36.5821C95.5231 36.7112 95.5928 36.8801 95.5928 37.0887C95.5928 37.3073 95.5231 37.4861 95.3836 37.6251C95.2441 37.7543 95.0598 37.8189 94.8307 37.8189H88.0764Z" fill="white"></path>
<path d="M98.7936 37.8189C98.5146 37.8189 98.3004 37.6996 98.151 37.4612C98.0016 37.2228 97.9866 36.9695 98.1062 36.7013L102.305 26.7026C102.455 26.3549 102.699 26.1811 103.037 26.1811C103.396 26.1811 103.64 26.3549 103.77 26.7026L107.984 36.7311C108.093 37.0092 108.073 37.2625 107.924 37.491C107.784 37.7096 107.57 37.8189 107.281 37.8189C107.132 37.8189 106.987 37.7791 106.848 37.6996C106.718 37.6102 106.624 37.491 106.564 37.342L102.858 28.1629H103.277L99.5108 37.342C99.4411 37.501 99.3365 37.6202 99.197 37.6996C99.0675 37.7791 98.933 37.8189 98.7936 37.8189ZM99.5856 35.2559L100.183 33.9744H106.041L106.639 35.2559H99.5856Z" fill="white"></path>
<path d="M111.288 37.8189C111.069 37.8189 110.884 37.7444 110.735 37.5953C110.586 37.4463 110.511 37.2625 110.511 37.044V26.9559C110.511 26.7275 110.586 26.5437 110.735 26.4046C110.884 26.2556 111.069 26.1811 111.288 26.1811C111.587 26.1811 111.816 26.3202 111.975 26.5983L116.653 35.5534H116.174L120.732 26.5983C120.891 26.3202 121.121 26.1811 121.419 26.1811C121.639 26.1811 121.823 26.2556 121.972 26.4046C122.122 26.5437 122.197 26.7275 122.197 26.9559V37.044C122.197 37.2625 122.117 37.4463 121.957 37.5953C121.808 37.7444 121.629 37.8189 121.419 37.8189C121.2 37.8189 121.016 37.7444 120.867 37.5953C120.717 37.4463 120.642 37.2625 120.642 37.044V29.1017L120.941 29.0272L117.026 36.5965C116.857 36.8548 116.633 36.9839 116.354 36.9839C116.025 36.9839 115.786 36.8299 115.636 36.522L111.766 29.1762L112.065 29.1017V37.044C112.065 37.2625 111.99 37.4463 111.841 37.5953C111.691 37.7444 111.507 37.8189 111.288 37.8189Z" fill="white"></path>
</g>
<defs>
<linearGradient id="paint0_linear_652_5427" x1="10.958" y1="7.17048" x2="51.06" y2="55.8616" gradientUnits="userSpaceOnUse">
<stop stop-color="#FFAF36"></stop>
<stop offset="0.253038" stop-color="#DB596E"></stop>
<stop offset="0.491834" stop-color="#CC2086"></stop>
<stop offset="1" stop-color="#0A2E59"></stop>
</linearGradient>
<clipPath id="clip0_652_5427">
<rect width="122.197" height="64" fill="white"></rect>
</clipPath>
</defs>
</svg>